<svg xmlns="http://www.w3.org/2000/svg" width="13.03" height="11.94">
  <defs>
    <filter id="a" x="1345" y="4540.81" width="13.03" height="11.94" filterUnits="userSpaceOnUse">
      <feFlood result="flood" flood-color="#41cdb8" />
      <feComposite result="composite" operator="in" in2="SourceGraphic" />
      <feBlend result="blend" in2="SourceGraphic" />
    </filter>
  </defs>
  <path data-name="иконка телефон" d="M1357.99 4550.68a3.341 3.341 0 0 1-3.27 2.07 3.4 3.4 0 0 1-.45-.03 11.112 11.112 0 0 1-5.83-3.13 9.761 9.761 0 0 1-3.41-5.34 2.833 2.833 0 0 1 2.23-3.41 1.241 1.241 0 0 1 .27-.03c.97 0 2.12 1.25 2.53 2.15a1.084 1.084 0 0 1-.06 1.31 2.1 2.1 0 0 0-1 1.46 3.313 3.313 0 0 0 1.19 1.6c.09.09.22.21.36.34s.25.22.36.32a3.341 3.341 0 0 0 1.81 1.09 2.479 2.479 0 0 0 1.53-.91.918.918 0 0 1 .64-.22 4.312 4.312 0 0 1 2.71 1.51 1.326 1.326 0 0 1 .39 1.22z" transform="translate(-1345 -4540.81)" fill="#000000" fill-rule="evenodd" filter="url(#a)" />
</svg>
