<svg xmlns="http://www.w3.org/2000/svg" width="16" height="12">
  <path d="M9.983 0A10.439 10.439 0 0 0 .05 9.45a10.619 10.619 0 0 0 .138 3.01 3.274 3.274 0 0 0 .069.33 10.728 10.728 0 0 0 .7 2.08c1.037 2.49 3.437 6.65 8.821 11.18a.891.891 0 0 0 1.149 0c5.384-4.52 7.784-8.69 8.827-11.19a10.1 10.1 0 0 0 .7-2.07c.048-.21.069-.33.069-.33a10.739 10.739 0 0 0 .186-1.99A10.408 10.408 0 0 0 9.983 0zm.367 15.68a5.085 5.085 0 1 1 5.025-5.09 5.059 5.059 0 0 1-5.025 5.09z" fill="#000000" fill-rule="evenodd" /></svg>
