<svg xmlns="http://www.w3.org/2000/svg" width="16" height="10.97"><defs><filter id="a" x="1345" y="4481.44" width="16" height="10.97" filterUnits="userSpaceOnUse"><feFlood result="flood" flood-color="#41cdb8"/><feComposite result="composite" operator="in" in2="SourceGraphic"/><feBlend result="blend" in2="SourceGraphic"/></filter></defs><path data-name="иконка письмо" d="M1359 4492.42a1.9 1.9 0 0 0 1.99-1.79v-7.38a1.9 1.9 0 0 0-1.99-1.8h-12.01a1.911 1.911 0 0 0-1.99 1.8v7.38a1.9 1.9 0 0 0 1.99 1.79H1359zm-11.96-8.47a.415.415 0 0 1-.06-.63.544.544 0 0 1 .69-.05l5.33 4.07 5.32-4.06a.533.533 0 0 1 .7.05.419.419 0 0 1-.06.62l-3.8 2.9 3.82 3.23a.427.427 0 0 1 .02.63.537.537 0 0 1-.7.02l-3.9-3.3-1.09.83a.5.5 0 0 1-.31.1.509.509 0 0 1-.32-.1l-1.09-.83-3.9 3.3a.543.543 0 0 1-.34.12.5.5 0 0 1-.35-.14.413.413 0 0 1 .02-.63l3.81-3.23z" transform="translate(-1345 -4481.44)" fill="#666" fill-rule="evenodd" filter="url(#a)"/></svg>