<svg xmlns="http://www.w3.org/2000/svg" xmlns:xlink="http://www.w3.org/1999/xlink"><defs><filter id="a" x="1345" y="4481.44" width="16" height="10.97" filterUnits="userSpaceOnUse"><feFlood result="flood" flood-color="#41cdb8"/><feComposite result="composite" operator="in" in2="SourceGraphic"/><feBlend result="blend" in2="SourceGraphic"/></filter><filter id="a" x="1345" y="4540.81" width="13.03" height="11.94" filterUnits="userSpaceOnUse"><feFlood result="flood" flood-color="#41cdb8"/><feComposite result="composite" operator="in" in2="SourceGraphic"/><feBlend result="blend" in2="SourceGraphic"/></filter></defs><symbol id="icon-letter"><path data-name="&#x438;&#x43A;&#x43E;&#x43D;&#x43A;&#x430; &#x43F;&#x438;&#x441;&#x44C;&#x43C;&#x43E;" d="M1359 4492.42a1.9 1.9 0 0 0 1.99-1.79v-7.38a1.9 1.9 0 0 0-1.99-1.8h-12.01a1.911 1.911 0 0 0-1.99 1.8v7.38a1.9 1.9 0 0 0 1.99 1.79H1359zm-11.96-8.47a.415.415 0 0 1-.06-.63.544.544 0 0 1 .69-.05l5.33 4.07 5.32-4.06a.533.533 0 0 1 .7.05.419.419 0 0 1-.06.62l-3.8 2.9 3.82 3.23a.427.427 0 0 1 .02.63.537.537 0 0 1-.7.02l-3.9-3.3-1.09.83a.5.5 0 0 1-.31.1.509.509 0 0 1-.32-.1l-1.09-.83-3.9 3.3a.543.543 0 0 1-.34.12.5.5 0 0 1-.35-.14.413.413 0 0 1 .02-.63l3.81-3.23z" transform="translate(-1345 -4481.44)" fill="#666" fill-rule="evenodd" filter="url(#a)"/></symbol><symbol id="icon-phone"><path data-name="&#x438;&#x43A;&#x43E;&#x43D;&#x43A;&#x430; &#x442;&#x435;&#x43B;&#x435;&#x444;&#x43E;&#x43D;" d="M1357.99 4550.68a3.341 3.341 0 0 1-3.27 2.07 3.4 3.4 0 0 1-.45-.03 11.112 11.112 0 0 1-5.83-3.13 9.761 9.761 0 0 1-3.41-5.34 2.833 2.833 0 0 1 2.23-3.41 1.241 1.241 0 0 1 .27-.03c.97 0 2.12 1.25 2.53 2.15a1.084 1.084 0 0 1-.06 1.31 2.1 2.1 0 0 0-1 1.46 3.313 3.313 0 0 0 1.19 1.6c.09.09.22.21.36.34s.25.22.36.32a3.341 3.341 0 0 0 1.81 1.09 2.479 2.479 0 0 0 1.53-.91.918.918 0 0 1 .64-.22 4.312 4.312 0 0 1 2.71 1.51 1.326 1.326 0 0 1 .39 1.22z" transform="translate(-1345 -4540.81)" fill="#666" fill-rule="evenodd" filter="url(#a)"/></symbol><symbol id="icon-pin"><path d="M9.983 0A10.439 10.439 0 0 0 .05 9.45a10.619 10.619 0 0 0 .138 3.01 3.274 3.274 0 0 0 .069.33 10.728 10.728 0 0 0 .7 2.08c1.037 2.49 3.437 6.65 8.821 11.18a.891.891 0 0 0 1.149 0c5.384-4.52 7.784-8.69 8.827-11.19a10.1 10.1 0 0 0 .7-2.07c.048-.21.069-.33.069-.33a10.739 10.739 0 0 0 .186-1.99A10.408 10.408 0 0 0 9.983 0zm.367 15.68a5.085 5.085 0 1 1 5.025-5.09 5.059 5.059 0 0 1-5.025 5.09z" fill="#00ffd7" fill-rule="evenodd"/></symbol></svg>